<?xml version="1.0" standalone="no"?>
<!DOCTYPE svg PUBLIC "-//W3C//DTD SVG 20010904//EN"
 "http://www.w3.org/TR/2001/REC-SVG-20010904/DTD/svg10.dtd">
<svg version="1.0" xmlns="http://www.w3.org/2000/svg"
 width="1536.000000pt" height="1024.000000pt" viewBox="0 0 1536.000000 1024.000000"
 preserveAspectRatio="xMidYMid meet">

<g transform="translate(0.000000,1024.000000) scale(0.100000,-0.100000)"
fill="#000000" stroke="none">
<path d="M2438 6671 c-110 -36 -178 -97 -232 -210 l-31 -66 0 -1120 0 -1120
27 -57 c37 -80 105 -149 186 -189 l67 -34 1090 0 1090 0 65 31 c82 39 154 108
188 182 l27 57 0 1130 0 1130 -28 57 c-55 113 -151 190 -268 217 -28 7 -418
10 -1084 10 -976 0 -1043 -1 -1097 -18z m2146 -183 c56 -17 131 -91 145 -145
8 -29 11 -347 9 -1090 -3 -1041 -3 -1048 -24 -1088 -13 -25 -39 -51 -69 -70
l-48 -30 -1031 -3 c-713 -2 -1042 0 -1068 8 -50 14 -97 56 -119 105 -18 38
-19 93 -19 1100 0 1011 1 1062 19 1100 24 51 68 93 117 110 54 20 2024 22
2088 3z"/>
<path d="M2779 5981 c-23 -23 -29 -38 -29 -71 0 -33 6 -48 29 -71 l29 -29 632
0 632 0 29 29 c41 41 41 101 0 142 l-29 29 -632 0 -632 0 -29 -29z"/>
<path d="M4440 5783 c14 -3 40 -16 58 -29 26 -20 32 -32 32 -62 0 -36 -18 -55
-503 -537 -697 -693 -657 -655 -703 -655 -22 0 -48 7 -59 15 -11 9 -113 108
-227 222 -189 188 -208 209 -208 240 0 25 8 43 29 64 55 54 65 48 267 -152
142 -141 186 -179 198 -172 9 5 177 168 374 363 196 195 436 433 533 528 97
94 172 172 166 172 -9 0 -223 -209 -832 -812 l-250 -248 -176 176 c-160 160
-179 176 -217 181 -36 5 -45 2 -72 -25 -24 -24 -30 -39 -30 -73 0 -42 3 -46
193 -237 105 -107 210 -207 231 -223 42 -32 94 -38 133 -16 12 7 279 268 593
580 539 537 570 570 570 603 0 19 -5 44 -10 55 -13 24 -62 49 -92 48 -22 -2
-22 -2 2 -6z"/>
<path d="M2779 5501 c-31 -31 -39 -83 -19 -122 26 -47 44 -49 455 -49 l387 0
29 29 c23 23 29 38 29 71 0 33 -6 48 -29 71 l-29 29 -397 0 -397 0 -29 -29z"/>
<path d="M9515 6025 c-184 -40 -344 -163 -423 -325 -64 -131 -77 -191 -77
-365 0 -139 2 -157 29 -239 54 -165 158 -289 306 -365 106 -54 190 -72 335
-72 218 1 360 56 495 193 65 66 112 143 146 243 27 75 28 90 29 245 0 145 -3
174 -23 240 -66 210 -220 364 -431 431 -89 28 -287 35 -386 14z m328 -248
c118 -54 203 -165 233 -305 66 -312 -90 -571 -355 -589 -264 -18 -441 165
-441 457 0 231 104 396 285 457 66 22 210 11 278 -20z"/>
<path d="M5450 5897 l0 -112 168 -2 c92 -1 177 -2 190 -2 l22 -1 0 -550 0
-550 131 0 130 0 -1 493 c-1 270 -1 520 -1 554 l1 62 143 -4 c78 -1 159 0 180
2 l37 6 0 108 0 109 -500 0 -500 0 0 -113z"/>
<path d="M8448 5778 l-3 -113 -80 -1 -80 0 -3 -92 -3 -92 86 0 85 0 0 -293 c0
-317 5 -353 54 -427 50 -76 169 -110 359 -102 l87 3 -5 47 c-2 26 -7 77 -11
114 -6 68 -6 68 -32 60 -79 -21 -177 1 -198 46 -5 9 -10 137 -12 285 l-3 267
126 0 126 0 -3 92 -3 92 -122 -2 -123 -1 0 113 0 114 -120 1 -119 2 -3 -113z"/>
<path d="M6733 5665 c-81 -22 -132 -52 -193 -114 -63 -62 -101 -133 -126 -231
-20 -78 -14 -267 10 -343 73 -228 284 -352 542 -319 183 24 308 128 359 300 6
22 6 22 -119 22 l-126 0 -14 -34 c-29 -69 -128 -107 -227 -87 -96 20 -157 88
-177 199 l-9 52 338 0 339 0 0 93 c0 248 -115 413 -321 462 -79 18 -207 18
-276 0z m245 -202 c42 -23 88 -89 98 -145 l6 -38 -210 0 -210 0 10 38 c34 123
101 176 211 168 31 -2 74 -13 95 -23z"/>
<path d="M7664 5660 c-72 -23 -154 -91 -186 -153 -26 -52 -34 -140 -18 -207
25 -103 117 -166 315 -215 176 -42 215 -66 215 -130 0 -77 -73 -123 -181 -111
-33 3 -74 14 -90 23 -29 18 -69 84 -69 116 0 13 -6 16 -22 12 -13 -2 -61 -10
-108 -16 -46 -6 -88 -13 -92 -15 -25 -16 15 -124 68 -183 90 -100 242 -146
410 -123 138 18 228 70 281 160 22 38 28 61 31 133 5 105 -7 148 -60 205 -48
52 -98 74 -263 115 -136 34 -186 63 -199 114 -15 60 49 115 134 115 83 0 135
-40 147 -112 l6 -38 113 0 c130 0 125 -5 99 93 -40 155 -149 225 -360 233 -91
3 -121 1 -171 -16z"/>
<path d="M10925 5666 c-65 -21 -101 -43 -139 -88 l-36 -42 0 62 0 62 -120 0
-120 0 2 -671 3 -670 118 -2 117 -2 0 228 c0 125 3 227 8 227 4 0 20 -14 37
-32 64 -68 190 -99 314 -79 206 33 332 201 348 461 11 185 -31 330 -125 432
-31 33 -76 70 -101 82 -88 44 -223 58 -306 32z m112 -208 c70 -17 126 -76 152
-162 71 -230 -36 -430 -221 -414 -74 6 -122 32 -157 84 -41 62 -55 129 -49
238 8 140 61 227 158 254 48 14 64 14 117 0z"/>
<path d="M11888 5661 c-134 -37 -236 -122 -293 -244 -54 -113 -69 -245 -44
-383 24 -135 125 -271 242 -328 195 -96 456 -58 600 86 180 180 193 543 26
733 -43 49 -124 101 -197 127 -84 29 -246 34 -334 9z m226 -202 c52 -14 119
-79 147 -142 20 -43 23 -69 24 -157 0 -116 -19 -176 -73 -234 -64 -68 -183
-86 -278 -42 -79 37 -115 94 -134 211 -26 163 39 319 150 364 34 13 116 13
164 0z"/>
<path d="M12880 5666 c-102 -30 -167 -80 -211 -166 -30 -56 -33 -186 -7 -235
47 -87 125 -132 301 -176 151 -37 173 -45 197 -77 22 -27 26 -82 10 -113 -16
-29 -84 -59 -132 -59 -102 0 -170 45 -183 120 -4 22 -12 40 -18 39 -7 0 -57
-8 -112 -18 l-100 -17 3 -34 c5 -53 48 -134 94 -175 89 -81 233 -117 382 -97
197 26 311 144 309 322 -1 155 -75 226 -292 280 -147 37 -169 45 -200 73 -36
34 -43 63 -26 103 25 59 126 83 201 48 43 -20 63 -48 71 -96 l6 -38 108 0 109
0 0 38 c0 104 -90 227 -195 265 -65 25 -251 32 -315 13z"/>
</g>
</svg>
